<?xml version="1.0" encoding="UTF-8"?>
<svg version="1.1" xmlns="http://www.w3.org/2000/svg" width="24" height="24">
<path d="M0 0 C2.70319021 -0.0918711 5.36055985 -0.03252247 8.0625 0.08935547 C9.00287109 0.11191406 9.94324219 0.13447266 10.91210938 0.15771484 C13.23467473 0.2166632 15.55403776 0.29887762 17.875 0.40185547 C17.215 2.38185547 16.555 4.36185547 15.875 6.40185547 C14.39386719 6.44052734 14.39386719 6.44052734 12.8828125 6.47998047 C11.60148437 6.53669922 10.32015625 6.59341797 9 6.65185547 C7.72382813 6.69826172 6.44765625 6.74466797 5.1328125 6.79248047 C1.78311895 7.02740602 1.78311895 7.02740602 0.4296875 9.44873047 C0.24664063 10.09326172 0.06359375 10.73779297 -0.125 11.40185547 C-3.125 10.40185547 -3.125 10.40185547 -4.5 8.15185547 C-5.125 5.40185547 -5.125 5.40185547 -4.30078125 2.74951172 C-2.125 0.40185547 -2.125 0.40185547 0 0 Z " fill="#E6E7E7" transform="translate(5.125,0.59814453125)"/>
<path d="M0 0 C-0.61277612 2.96175123 -1.25372522 4.38058783 -3 7 C-6.125 7.1875 -6.125 7.1875 -9 7 C-9.28875 7.928125 -9.5775 8.85625 -9.875 9.8125 C-11 13 -11 13 -13 16 C-13.99 15.67 -14.98 15.34 -16 15 C-16.96139055 12.04187524 -17.27456816 9.84684226 -16.3046875 6.85546875 C-15.07372765 4.46671799 -13.99592423 2.81015639 -12 1 C-7.98423642 -0.17703415 -4.13777273 0 0 0 Z " fill="#E8E9E8" transform="translate(19,8)"/>
<path d="M0 0 C-0.33 1.32 -0.66 2.64 -1 4 C-1.33 3.34 -1.66 2.68 -2 2 C-5.3 2 -8.6 2 -12 2 C-12 1.67 -12 1.34 -12 1 C-10.37512529 0.83211627 -8.75009558 0.66573213 -7.125 0.5 C-6.22007813 0.4071875 -5.31515625 0.314375 -4.3828125 0.21875 C-2 0 -2 0 0 0 Z " fill="#D0D0D0" transform="translate(19,8)"/>
</svg>
